<?xml version="1.0" encoding="UTF-8"?>
<svg viewBox="0 0 400.13419 363.48459" xmlns="http://www.w3.org/2000/svg">
 <g transform="translate(-156.56 -301.23)">
  <path transform="matrix(3.418 0 0 3.418 -2586.9 -461.62)" d="m809.48 319.44c-2.5845-4.4764 46.52-89.528 51.689-89.528s54.274 85.052 51.689 89.528-100.79 4.4764-103.38 0z" stroke="#000" stroke-width="13.451"/>
  <path transform="matrix(3.418 0 0 3.418 -2586.9 -461.62)" d="m809.48 319.44c-2.5845-4.4764 46.52-89.528 51.689-89.528s54.274 85.052 51.689 89.528-100.79 4.4764-103.38 0z" fill="#fff" stroke="#f00" stroke-width="8"/>
  <g transform="scale(.8449,1.1836)" fill="#f00" font-family="Albert" font-size="238.79" letter-spacing="0" word-spacing="0">
   <path d="m461.62 366.49c-2.0648 6.8452-4.2922 18.944-6.6823 36.297s-3.5854 30.725-3.5853 40.116c-7e-5 4.1392 0.5574 7.6807 1.6724 10.625 1.1149 2.9441 2.3087 5.9294 3.5816 8.9559-7e-5 1.9093-0.0778 2.9441-0.23319 3.1043-1.2778 0.79678-5.497 1.1951-12.658 1.1951-6.369 5e-5 -12.02-0.5975-16.954-1.7926s-9.3118-2.9852-13.135-5.3706c-8.4386 6e-5 -14.727-9.0749-18.866-27.225-1.2728-6.0482-2.4655-15.121-3.578-27.218-1e-5 -6.3689 0.3182-11.345 0.95462-14.928s1.1926-6.647 1.6688-9.1928c-1e-5 -1.5933-0.87447-3.5026-2.6234-5.7277-1.9092-0.95691-3.3424-1.8338-4.2994-2.6307-2.8663-2.7058-4.2994-6.2085-4.2994-10.508-0.4761-3.0216 2e-3 -5.249 1.4356-6.6823 2.3853-2.5455 7.3989-3.8183 15.041-3.8185 2.0695-1.2727 6.7673-2.4678 14.093-3.5853 1.1125-0.16015 2.7035-0.3982 4.7731-0.71415 9.7113 1.7e-4 19.024 1.511 27.939 4.5326 10.984 3.8235 16.236 8.6792 15.755 14.567zm-1.4283 133.01c-9e-5 5.2516-0.47861 8.5163-1.4356 9.7939-1.749 0.79187-3.1821 1.506-4.2994 2.1424-3.0218 1.7538-6.046 3.9836-9.0725 6.6896l-18.859 2.6234c-13.374 0-23.086-2.8638-29.134-8.5916-4.2994-4.1391-6.4491-9.1551-6.4491-15.048-0.16033-1.5886-0.24049-2.7011-0.24048-3.3375-1e-5 -5.5722 1.9918-9.7113 5.9755-12.417 4.6152-3.1869 12.891-5.5746 24.827-7.1633 2.5505-0.32059 4.2241-0.48091 5.0208-0.48095 3.8184 4e-5 7.5592 1.0348 11.222 3.1043 2.3853 1.2729 6.0458 4.059 10.982 8.3584 2.7059 1.749 5.4118 3.4201 8.1179 5.0136 2.2298 2.3902 3.3447 5.4945 3.3448 9.313z"/>
  </g>
 </g>
</svg>
